<?xml version="1.0" encoding="UTF-8" standalone="no"?>
<!-- Created with Inkscape (http://www.inkscape.org/) -->

<svg
   width="1500"
   height="1500"
   viewBox="0 0 396.87499 396.875"
   version="1.1"
   id="svg5"
   inkscape:export-filename="Dokum Logo v2024-09-21.png"
   inkscape:export-xdpi="96"
   inkscape:export-ydpi="96"
   inkscape:version="1.3.2 (091e20e, 2023-11-25)"
   sodipodi:docname="Dokum Logo.svg"
   xmlns:inkscape="http://www.inkscape.org/namespaces/inkscape"
   xmlns:sodipodi="http://sodipodi.sourceforge.net/DTD/sodipodi-0.dtd"
   xmlns="http://www.w3.org/2000/svg"
   xmlns:svg="http://www.w3.org/2000/svg">
  <sodipodi:namedview
     id="namedview7"
     pagecolor="#ffffff"
     bordercolor="#000000"
     borderopacity="0.25"
     inkscape:showpageshadow="2"
     inkscape:pageopacity="0.0"
     inkscape:pagecheckerboard="0"
     inkscape:deskcolor="#d1d1d1"
     inkscape:document-units="px"
     showgrid="false"
     showguides="true"
     inkscape:zoom="0.538"
     inkscape:cx="750"
     inkscape:cy="750.92937"
     inkscape:window-width="1920"
     inkscape:window-height="1027"
     inkscape:window-x="1440"
     inkscape:window-y="25"
     inkscape:window-maximized="0"
     inkscape:current-layer="layer3">
    <inkscape:grid
       type="xygrid"
       id="grid2385"
       originx="0"
       originy="0"
       spacingy="1"
       spacingx="1"
       units="px"
       visible="false" />
  </sodipodi:namedview>
  <defs
     id="defs2" />
  <g
     inkscape:label="Layer 1"
     inkscape:groupmode="layer"
     id="layer1"
     style="display:inline">
    <rect
       style="display:inline;fill:#ffcc00;stroke-width:0.264583"
       id="rect171"
       width="397.34247"
       height="398.2774"
       x="0"
       y="0" />
  </g>
  <g
     inkscape:groupmode="layer"
     id="layer4"
     inkscape:label="Mask"
     style="display:none">
    <ellipse
       style="display:none;fill:#ffcc00;fill-opacity:1;stroke:#000000;stroke-width:0.434821;stroke-dasharray:none;stroke-opacity:1"
       id="path2383"
       ry="197.73399"
       rx="198.66895"
       cy="199.1387"
       cx="198.67123" />
  </g>
  <g
     inkscape:groupmode="layer"
     id="layer2"
     inkscape:label="Circle"
     style="display:none">
    <ellipse
       style="display:inline;fill:#ffcc00;fill-opacity:1;stroke:#000000;stroke-width:0.304535;stroke-dasharray:none;stroke-opacity:1"
       id="path1390"
       cx="198.67123"
       cy="198.37135"
       rx="198.07147"
       ry="198.37135" />
  </g>
  <g
     inkscape:groupmode="layer"
     id="layer3"
     inkscape:label="Logo"
     style="display:inline"
     transform="translate(-10.583333)">
    <g
       aria-label="D"
       id="text1112"
       style="font-size:433.493px;stroke:#ffd42a;stroke-width:0.3175"
       transform="matrix(0.97381839,0,0,0.89218644,-3.4661982,20.945208)">
      <path
         d="m 366.87324,198.68885 c -0.18766,26.71228 -6.18413,54.58051 -18.39199,77.89327 -12.17709,23.25399 -28.30605,41.35413 -48.56311,54.18663 -14.04711,8.8986 -29.76108,15.29554 -47.11655,19.26165 -17.22422,3.93612 -47.48685,5.92666 -75.72923,5.92666 l -75.54834,-1.10244 V 41.888066 l 74.72173,-1.102437 c 30.03024,-0.443063 61.38138,2.340601 79.03566,6.773328 17.75238,4.457359 32.81301,10.402081 45.05004,18.20332 20.96508,13.365475 37.78376,31.945466 48.97641,53.551623 12.41456,23.96491 17.75596,52.24616 17.56538,79.37495 z m -50.31109,-0.635 c 0,-24.69443 -4.20191,-45.5083 -12.60574,-62.44162 -8.40383,-16.93333 -20.9407,-30.26832 -37.61059,-40.004975 -12.12355,-7.05555 -25.00483,-11.92388 -38.64383,-14.604989 -13.639,-2.82222 -29.96448,-4.23333 -48.97642,-4.23333 H 140.28838 V 319.97376 h 38.43719 c 19.70078,0 36.85285,-1.48167 51.45623,-4.445 14.74115,-2.96333 28.24238,-8.46666 40.50371,-16.50999 15.29221,-10.01888 26.72693,-23.21276 34.30415,-39.58164 7.71499,-16.36887 11.57249,-36.82997 11.57249,-61.38328 z"
         id="path1705"
         inkscape:label="path1705"
         style="display:inline;stroke-width:0.313716"
         sodipodi:nodetypes="assssccsssaassccsccscccs" />
    </g>
    <rect
       style="fill:#000000;stroke:#000000;stroke-width:0.259288;stroke-dasharray:none;stroke-opacity:1"
       id="rect1433"
       width="126.5835"
       height="245.05626"
       x="124.99831"
       y="74.129768" />
    <rect
       style="fill:#000000;stroke:#000000;stroke-width:0.292352;stroke-dasharray:none;stroke-opacity:1"
       id="rect1435"
       width="74.494232"
       height="210.01987"
       x="231.37106"
       y="92.096718"
       ry="7.1801667" />
    <ellipse
       style="fill:#ffd42a;stroke:#000000;stroke-width:0.243534;stroke-dasharray:none;stroke-opacity:1"
       id="path1541"
       cx="216.95833"
       cy="195.85135"
       rx="58.088966"
       ry="58.148651" />
  </g>
</svg>
